<?xml version="1.0" standalone="no"?>
<!DOCTYPE svg PUBLIC "-//W3C//DTD SVG 20010904//EN"
 "http://www.w3.org/TR/2001/REC-SVG-20010904/DTD/svg10.dtd">
<svg version="1.0" xmlns="http://www.w3.org/2000/svg" width="756.000000pt" height="676.000000pt" viewBox="0 0 756.000000 676.000000" preserveAspectRatio="xMidYMid meet">
    <metadata>
        Created by potrace 1.15, written by Peter Selinger 2001-2017
    </metadata>
    <g transform="translate(0.000000,676.000000) scale(0.100000,-0.100000)" fill="rgba(31, 31, 31, 0.8)" stroke="none">
        <path d="M3571 5200 c-268 -72 -476 -280 -557 -555 -14 -50 -18 -115 -21 -385
-5 -346 1 -410 46 -498 50 -98 150 -189 244 -223 20 -7 36 -18 34 -23 -6 -19
-143 -86 -322 -157 -304 -122 -456 -206 -584 -325 -161 -149 -265 -365 -287
-595 -9 -91 14 -158 75 -218 44 -44 80 -60 706 -315 363 -148 679 -275 704
-283 53 -16 171 -17 225 -2 57 16 1302 526 1359 557 58 31 103 89 123 159 34
118 -36 381 -144 539 -131 194 -309 317 -656 454 -210 84 -337 143 -361 170
-17 19 -17 20 1 26 125 41 233 139 292 261 l37 78 3 325 c4 358 -1 418 -49
539 -41 104 -105 195 -197 282 -94 89 -162 131 -279 172 -117 41 -278 48 -392
17z m330 -193 c99 -36 157 -73 234 -151 75 -76 122 -154 152 -251 16 -53 18
-98 18 -375 l0 -315 -28 -57 c-33 -68 -82 -112 -157 -145 -103 -45 -123 -58
-148 -96 -35 -53 -40 -122 -13 -175 43 -84 154 -151 446 -267 302 -120 416
-187 536 -312 113 -119 182 -270 195 -428 6 -61 4 -72 -13 -87 -10 -10 -311
-137 -668 -284 -646 -266 -650 -267 -725 -268 l-75 -1 -655 268 c-387 159
-662 277 -672 289 -23 26 -23 82 1 183 47 193 149 338 320 454 82 56 214 120
406 196 208 83 310 134 371 188 80 71 104 158 64 237 -20 38 -81 90 -108 90
-30 0 -112 52 -150 95 -71 81 -74 101 -70 462 4 298 6 322 26 377 76 203 244
352 447 396 66 15 194 4 266 -23z" />
        <path d="M2635 5094 c-128 -20 -252 -83 -350 -178 -83 -83 -132 -160 -172
-271 l-28 -80 0 -320 0 -320 33 -71 c37 -78 100 -147 170 -187 l43 -24 -33
-21 c-19 -12 -117 -54 -218 -95 -257 -103 -329 -140 -454 -237 -167 -129 -285
-362 -289 -570 -1 -85 18 -132 75 -187 42 -41 463 -223 514 -223 72 0 113 95
65 147 -11 11 -113 60 -228 108 -114 49 -216 95 -225 103 -35 30 -14 153 49
282 27 56 55 94 112 150 95 93 181 143 411 236 96 39 204 85 238 103 70 35
146 100 168 142 18 35 18 100 0 142 -15 38 -69 87 -95 87 -37 0 -108 57 -132
106 -23 47 -24 59 -27 300 -4 275 4 338 54 436 34 67 130 167 193 201 111 61
240 71 339 26 84 -37 152 0 152 81 0 50 -38 82 -125 109 -66 21 -186 33 -240
25z" />
        <path d="M4663 5089 c-68 -11 -161 -47 -184 -70 -45 -45 -29 -124 31 -149 28
-12 40 -11 99 9 90 30 149 36 223 21 185 -36 343 -197 377 -384 17 -94 14
-491 -4 -553 -18 -60 -81 -124 -141 -143 -87 -28 -134 -86 -134 -165 0 -58 18
-93 74 -142 59 -52 128 -88 316 -163 85 -35 182 -76 215 -93 214 -106 337
-244 385 -433 23 -89 25 -137 8 -152 -7 -5 -110 -51 -228 -101 -118 -50 -223
-101 -232 -112 -47 -55 -4 -149 68 -149 42 0 459 176 511 216 17 13 44 49 59
79 25 51 26 63 21 133 -8 102 -40 210 -88 302 -111 214 -271 333 -647 483 -89
36 -183 78 -209 92 l-46 27 57 31 c114 61 188 175 208 319 16 119 5 524 -17
603 -52 195 -178 347 -361 437 -119 57 -241 77 -361 57z" />
    </g>
</svg>
