<svg xmlns="http://www.w3.org/2000/svg" xmlns:xlink="http://www.w3.org/1999/xlink" version="1.1" x="0px" y="0px" viewBox="0 0 100 125" enable-background="new 0 0 100 100" xml:space="preserve"><path fill="#f2f2f2" d="M50,5C25.2,5,5,25.2,5,50s20.2,45,45,45s45-20.2,45-45S74.8,5,50,5z M50,90c-22.1,0-40-17.9-40-40s17.9-40,40-40  s40,17.9,40,40S72.1,90,50,90z"/><path fill="#f2f2f2" d="M72.5,47.8L40.6,29.4c-0.8-0.4-1.7-0.4-2.5,0c-0.8,0.4-1.3,1.3-1.3,2.2v36.8c0,0.9,0.5,1.7,1.3,2.2c0.4,0.2,0.8,0.3,1.3,0.3  s0.9-0.1,1.3-0.3l31.9-18.4c0.8-0.4,1.3-1.3,1.3-2.2S73.3,48.3,72.5,47.8z M41.9,64.1V35.9L66.3,50L41.9,64.1z"/></svg>
