<?xml version="1.0" encoding="utf-8"?>
<!-- Generator: Adobe Illustrator 16.0.0, SVG Export Plug-In . SVG Version: 6.00 Build 0)  -->
<!DOCTYPE svg PUBLIC "-//W3C//DTD SVG 1.1//EN" "http://www.w3.org/Graphics/SVG/1.1/DTD/svg11.dtd">
<svg version="1.1" id="Layer_1" xmlns="http://www.w3.org/2000/svg" xmlns:xlink="http://www.w3.org/1999/xlink" x="0px" y="0px"
	 width="383.303px" height="136.236px" viewBox="0 0 383.303 136.236" enable-background="new 0 0 383.303 136.236"
	 xml:space="preserve">
<g>
	<g>
		<g>
			<path fill="rgba(0, 0, 0, 0.5)" d="M383.303,136.236H0V0h383.303V136.236z M195.398,133.746h185.412V3.792L195.398,133.746z M2.491,133.746h187.913V2.492
				H2.491V133.746z M192.896,2.492v129.965L378.326,2.492H192.896z"/>
		</g>
		<g>
			<path fill="rgba(0, 0, 0, 0.5)" d="M58.952,64.562c0-2.719-2.378-4.712-5.323-4.712c-2.854,0-5.096,1.88-5.096,4.485c0,2.83,1.925,4.303,4.077,4.959
				c0.566,0.182,1.269,0.363,1.812,0.477c1.133,0.227,2.605,0.793,2.605,2.49c0,1.586-1.246,2.65-3.171,2.65
				c-1.699,0-3.443-1.312-3.398-3.555l-2.378,0.904c0.045,2.537,2.695,4.939,5.776,4.939c3.511,0,5.549-2.447,5.549-4.939
				c0-2.83-1.812-4.234-4.077-4.777c-0.589-0.137-1.201-0.273-1.812-0.432c-1.812-0.475-2.605-1.359-2.605-2.604
				c0-1.359,1.042-2.379,2.718-2.379c1.585,0,2.831,1.133,2.831,2.492H58.952L58.952,64.562z M68.637,62.523h4.575v-2.266H61.661
				v2.266h4.575v14.27h2.401V62.523L68.637,62.523z M81.939,69.544c2.718,0,5.255-1.812,5.255-4.643
				c0-2.945-2.378-4.645-5.096-4.645h-5.889v16.535h2.378v-7.248h0.453l5.798,7.248h2.695v-0.453L81.939,69.544L81.939,69.544z
				 M78.587,67.279v-4.756h3.624c1.359,0,2.604,0.906,2.604,2.379c0,1.471-1.246,2.377-2.604,2.377H78.587L78.587,67.279z
				 M91.074,76.792h9.966v-2.266h-7.588v-4.982h7.361v-2.266h-7.361v-4.756h7.588v-2.266h-9.966V76.792L91.074,76.792z
				 M105.123,76.792h9.287v-2.266h-6.908v-14.27h-2.378V76.792L105.123,76.792z M126.217,60.257l-6.116,6.795v-6.795h-2.378v16.535
				h2.378v-7.021l6.138,7.021h3.035l-7.361-8.404l7.135-8.131H126.217L126.217,60.257z M131.54,76.792h2.378l1.449-4.305h6.138
				l1.472,4.305h2.378l-5.663-16.535h-2.491L131.54,76.792L131.54,76.792z M138.448,63.429l2.288,6.795h-4.598L138.448,63.429
				L138.448,63.429z"/>
		</g>
	</g>
	<g>
		<path fill="rgba(0, 0, 0, 0.5)" d="M204.734,13.072l5.846,6.796v-6.796h2.379v6.796l5.82-6.796h2.832l-6.908,8.154l7.135,8.381h-3.035l-5.844-7.021v7.021
			h-2.379v-7.021l-5.867,7.021h-3.035l7.135-8.381l-6.908-8.154H204.734z"/>
		<path fill="rgba(0, 0, 0, 0.5)" d="M226.027,13.072l3.352,7.701l3.443-7.701h2.605l-7.475,16.535h-2.537l2.695-6.025l-4.688-10.51H226.027z"/>
		<path fill="rgba(0, 0, 0, 0.5)" d="M238.145,13.072h6.004c2.943,0,5.096,1.926,5.096,4.758c0,2.83-2.152,4.756-5.096,4.756h-3.625v7.021h-2.379V13.072z
			 M244.262,20.321c1.359,0,2.604-0.794,2.604-2.491c0-1.699-1.244-2.492-2.604-2.492h-3.738v4.983H244.262z"/>
		<path fill="rgba(0, 0, 0, 0.5)" d="M261.137,13.072h2.379v16.535h-2.379v-7.248h-6.342v7.248h-2.379V13.072h2.379v7.021h6.342V13.072z"/>
		<path fill="rgba(0, 0, 0, 0.5)" d="M272.35,13.072h2.492l5.662,16.535h-2.379l-1.473-4.303h-6.137l-1.451,4.303h-2.377L272.35,13.072z M271.285,23.039h4.598
			l-2.287-6.795L271.285,23.039z"/>
		<path fill="rgba(0, 0, 0, 0.5)" d="M284.355,13.072H295v16.535h-2.377v-14.27h-5.891v10.396c0,2.152-1.471,4.1-4.189,4.1l-0.453-0.227v-2.038h0.453
			c1.133,0,1.812-0.68,1.812-1.812V13.072z"/>
	</g>
</g>
<g>
	<path fill="rgba(0, 0, 0, 0.5)" d="M267.758,106.371h3.396v16.531h-2.355v-13.338l-4.664,9.715h-2.717l-4.666-9.715v13.338h-2.354v-16.531
		h3.396l4.98,10.553L267.758,106.371z"/>
	<path fill="rgba(0, 0, 0, 0.5)" d="M279.98,106.371h2.49l5.662,16.531h-2.379l-1.471-4.303h-6.137l-1.449,4.303h-2.377L279.98,106.371z
		 M278.916,116.333h4.598l-2.287-6.793L278.916,116.333z"/>
	<path fill="rgba(0, 0, 0, 0.5)" d="M303.053,110.695c-1.088-1.562-2.854-2.514-5.072-2.514c-3.736,0-6.092,2.719-6.092,6.479
		c0,3.713,2.355,6.43,6.092,6.43c3.305,0,5.818-2.15,6.045-5.207h-8.424v-2.266h8.605l2.15,2.152
		c-0.227,4.074-3.85,7.586-8.377,7.586c-4.869,0-8.492-3.85-8.492-8.719s3.623-8.719,8.605-8.719c2.717,0,5.004,1.223,6.588,3.148
		L303.053,110.695z"/>
	<path fill="rgba(0, 0, 0, 0.5)" d="M312.922,106.371h2.49l5.66,16.531h-2.377l-1.473-4.303h-6.137l-1.449,4.303h-2.377L312.922,106.371z
		 M311.857,116.333h4.596l-2.287-6.793L311.857,116.333z"/>
	<path fill="rgba(0, 0, 0, 0.5)" d="M323.561,106.371h10.869v2.264l-8.672,12.002h8.445v2.266h-11.096v-2.266l8.672-12.002h-8.219V106.371z"/>
	<path fill="rgba(0, 0, 0, 0.5)" d="M337.709,120.636h0.385v-12.002h-0.385v-2.264h3.17v2.264h-0.385v12.002h0.385v2.266h-3.17V120.636z"/>
	<path fill="rgba(0, 0, 0, 0.5)" d="M354.941,106.371h2.354v16.531h-2.604l-7.043-12.455v12.455h-2.354v-16.531h2.604l7.043,12.229V106.371z"/>
	<path fill="rgba(0, 0, 0, 0.5)" d="M361.82,106.371h9.963v2.264h-7.584v4.756h7.359v2.266h-7.359v4.98h7.584v2.266h-9.963V106.371z"/>
</g>
</svg>
