<?xml version="1.0" encoding="iso-8859-1"?>
<!-- Generator: Adobe Illustrator 19.0.0, SVG Export Plug-In . SVG Version: 6.00 Build 0)  -->
<svg version="1.1" id="Capa_1" xmlns="http://www.w3.org/2000/svg" xmlns:xlink="http://www.w3.org/1999/xlink" x="0px" y="0px"
	 viewBox="0 0 512 512" style="enable-background:new 0 0 512 512;" xml:space="preserve">
<g>
	<g>
		<path fill="#2ebd7f" d="M501.333,0H10.667C4.771,0,0,4.771,0,10.667c0,5.896,4.771,10.667,10.667,10.667h10.667v469.333
			c0,11.76,9.563,21.333,21.333,21.333h81.208c6.833,0,13.313-3.313,17.313-8.865c2.628-3.667,3.867-8.051,3.874-12.469h221.878
			c0.006,4.419,1.247,8.803,3.874,12.469c4,5.552,10.479,8.865,17.313,8.865h81.208c11.771,0,21.333-9.573,21.333-21.333V21.333
			h10.667c5.896,0,10.667-4.771,10.667-10.667C512,4.771,507.229,0,501.333,0z M323.155,21.333l24.43,68.413
			c-4.694,2.96-8.186,6.805-10.918,10.087c-4.313,5.167-6.021,6.833-9.625,6.833c-3.604,0-5.313-1.667-9.625-6.833
			c-4.813-5.771-12.104-14.5-26-14.5c-13.896,0-21.167,8.729-25.979,14.51c-4.313,5.156-6,6.823-9.583,6.823
			c-3.417,0-5.021-1.375-9.542-6.823c-4.813-5.781-12.083-14.51-25.958-14.51s-21.146,8.729-25.938,14.5
			c-4.313,5.167-6,6.833-9.583,6.833c-3.417,0-5.021-1.375-9.542-6.823c-2.729-3.28-6.204-7.125-10.88-10.086l24.434-68.424H323.155
			z M401.292,320h-77.25c-16.938,0-33.271,9.438-44.771,25.885c-2.583,3.667-2.583,8.563,0,12.229
			c1.191,1.704,2.633,3.001,3.923,4.552h-54.388c1.29-1.551,2.732-2.848,3.923-4.552c2.583-3.667,2.583-8.563,0-12.229
			C221.229,329.438,204.896,320,187.958,320h-77.25c-6.796,0-13.467,1.72-19.704,4.598l-5.046-15.139l70.801-198.271
			c0.711,0.792,1.23,1.214,2.137,2.302c4.792,5.781,12.063,14.51,25.938,14.51c13.896,0,21.167-8.729,25.979-14.51
			c4.521-5.448,6.125-6.823,9.542-6.823c3.417,0,5.021,1.375,9.542,6.823c4.813,5.781,12.083,14.51,25.958,14.51
			s21.146-8.729,25.958-14.5c4.313-5.167,6-6.833,9.604-6.833c3.604,0,5.313,1.667,9.625,6.833c4.813,5.771,12.104,14.5,26,14.5
			c13.896,0,21.188-8.729,26-14.5c0.927-1.111,1.461-1.547,2.186-2.349l70.814,198.307l-5.063,15.189
			C414.634,321.701,408.013,320,401.292,320z M414.073,345.369l-5.767,17.298h-84.264c-7.938,0-15.667-3.74-22.313-10.667
			c6.646-6.927,14.375-10.667,22.313-10.667h77.25C405.491,341.333,409.771,342.965,414.073,345.369z M210.271,352
			c-6.646,6.927-14.375,10.667-22.313,10.667h-84.266l-5.783-17.348c4.208-2.352,8.51-3.986,12.798-3.986h77.25
			C195.896,341.333,203.625,345.073,210.271,352z M42.667,21.333h123.535L67.155,298.667H42.667V21.333z M42.667,490.667V320h24.306
			l56.902,170.667H42.667z M372.753,469.333H139.243L110.802,384h77.156h136.083h77.154L372.753,469.333z M469.333,490.667h-81.188
			L445.029,320h24.305V490.667z M469.333,298.667h-24.488L345.798,21.333h123.535V298.667z"/>
	</g>
</g>
<g>
</g>
<g>
</g>
<g>
</g>
<g>
</g>
<g>
</g>
<g>
</g>
<g>
</g>
<g>
</g>
<g>
</g>
<g>
</g>
<g>
</g>
<g>
</g>
<g>
</g>
<g>
</g>
<g>
</g>
</svg>
