<?xml version="1.0" standalone="no"?>
<!DOCTYPE svg PUBLIC "-//W3C//DTD SVG 20010904//EN"
 "http://www.w3.org/TR/2001/REC-SVG-20010904/DTD/svg10.dtd">
<svg version="1.0" xmlns="http://www.w3.org/2000/svg" width="237.000000pt" height="237.000000pt" viewBox="0 0 237.000000 237.000000" preserveAspectRatio="xMidYMid meet">
    <metadata>
        Created by potrace 1.15, written by Peter Selinger 2001-2017
    </metadata>
    <g transform="translate(0.000000,237.000000) scale(0.100000,-0.100000)" fill="#2ebd7f" stroke="none">
        <path d="M575 2351 c-69 -17 -134 -71 -171 -141 -27 -50 -25 -161 4 -216 24
-47 81 -100 128 -120 19 -8 63 -14 100 -14 142 0 244 104 244 247 0 162 -149
282 -305 244z m126 -134 c71 -47 86 -134 33 -196 -80 -95 -234 -40 -234 84 0
107 114 170 201 112z" />
        <path d="M344 1811 c-76 -34 -134 -124 -134 -207 0 -43 49 -400 61 -447 6 -22
27 -55 49 -77 44 -44 36 -7 96 -440 14 -107 33 -208 41 -223 8 -15 28 -37 46
-47 31 -19 56 -20 828 -20 758 0 797 1 812 18 10 10 17 30 17 45 0 39 -34 57
-107 57 l-63 0 0 331 0 330 44 -35 c48 -40 84 -46 109 -18 24 27 21 55 -10 84
-48 46 -657 529 -681 540 -25 13 -48 4 -98 -40 -17 -15 -169 -137 -338 -270
-287 -229 -306 -246 -306 -276 0 -18 5 -37 12 -44 19 -19 64 -14 95 11 70 56
63 87 63 -282 l0 -331 -165 0 -165 0 0 29 c0 15 -9 91 -20 167 -11 76 -25 175
-31 219 -23 175 -33 227 -43 236 -6 4 -26 21 -44 36 -35 30 -34 24 -73 338 -6
50 -13 93 -15 96 -7 13 17 77 36 94 12 10 43 21 70 25 l49 6 55 -68 c31 -37
67 -70 80 -74 36 -9 76 18 125 83 l44 59 49 -6 c67 -9 98 -41 106 -111 6 -46
11 -56 34 -67 89 -42 114 107 35 210 -48 62 -105 87 -199 88 l-77 0 -50 -60
-50 -60 -47 60 -47 60 -76 0 c-52 0 -89 -6 -117 -19z m1311 -413 l215 -172 0
-378 0 -378 -440 0 -440 0 0 378 0 377 38 27 c20 15 118 93 217 172 99 80 183
145 188 145 4 1 104 -76 222 -171z" />
    </g>
</svg>
