<svg xmlns="http://www.w3.org/2000/svg" xmlns:xlink="http://www.w3.org/1999/xlink" version="1.1" x="0px" y="0px" viewBox="0 0 64 80" style="enable-background:new 0 0 64 64;" xml:space="preserve">
    <g>
        <g>
            <g>
                <path fill="#00b9d1" d="M12.5,31.7v-4.9c0-1.2,1-2.2,2.2-2.2h12.9c1.2,0,2.2,1,2.2,2.2v4.9h4.2v-4.9c0-1.2,1-2.2,2.2-2.2h12.9     c1.2,0,2.2,1,2.2,2.2v4.9h6.8c0.8,0,1.6,0.1,2.3,0.4v-24c0-1.5-1.2-2.6-2.6-2.6H41.3C38.8,3.3,35.6,2,32,2     c-3.6,0-6.8,1.3-9.3,3.5H6c-1.5,0-2.7,1.2-2.7,2.6v24c0.7-0.2,1.5-0.4,2.3-0.4H12.5z" />
            </g>
            <g>
                <path fill="#00b9d1" d="M64,39.5c0-3.1-2.5-5.7-5.6-5.7H5.7c-3.1,0-5.7,2.5-5.7,5.7v5.5h64V39.5z" />
            </g>
            <g>
                <polygon fill="#00b9d1" points="0,47.2 0,62 4.4,62 4.4,57.3 59.6,57.3 59.6,62 64,62 64,47.2" />
            </g>
        </g>
    </g>
</svg>