<?xml version="1.0" encoding="iso-8859-1"?>
<!-- Generator: Adobe Illustrator 19.0.0, SVG Export Plug-In . SVG Version: 6.00 Build 0)  -->
<svg version="1.1" id="Capa_1" xmlns="http://www.w3.org/2000/svg" xmlns:xlink="http://www.w3.org/1999/xlink" x="0px" y="0px"
	 viewBox="0 0 512 512" style="enable-background:new 0 0 512 512;" xml:space="preserve">
<g>
	<g>
		<path fill="#2ebd7f" d="M501.333,341.333c5.896,0,10.667-4.771,10.667-10.667V288c0-5.896-4.771-10.667-10.667-10.667h-11.745
			c-2.637-12.938-10.089-24.038-20.255-31.732V106.667c0-23.531-19.146-42.667-42.667-42.667H85.333
			c-23.521,0-42.667,19.135-42.667,42.667v138.935c-10.167,7.694-17.619,18.794-20.255,31.732H10.667C4.771,277.333,0,282.104,0,288
			v42.667c0,5.896,4.771,10.667,10.667,10.667h10.667V384H10.667C4.771,384,0,388.771,0,394.667v42.667
			C0,443.229,4.771,448,10.667,448h490.667c5.896,0,10.667-4.771,10.667-10.667v-42.667c0-5.896-4.771-10.667-10.667-10.667h-10.667
			v-42.667H501.333z M64,106.667c0-11.76,9.563-21.333,21.333-21.333h341.333c11.771,0,21.333,9.573,21.333,21.333v129.079
			c-3.448-0.703-7.013-1.079-10.667-1.079h-17.596c1.233-1.096,2.626-1.949,3.805-3.125c2-2,3.125-4.708,3.125-7.542
			s-1.125-5.542-3.125-7.542C407.75,200.688,386.792,192,364.5,192h-25c-22.292,0-43.25,8.688-59.042,24.458
			c-2,2-3.125,4.708-3.125,7.542s1.125,5.542,3.125,7.542c1.178,1.176,2.572,2.029,3.805,3.125h-56.526
			c1.233-1.096,2.626-1.949,3.805-3.125c2-2,3.125-4.708,3.125-7.542s-1.125-5.542-3.125-7.542
			C215.75,200.688,194.792,192,172.5,192h-25c-22.292,0-43.25,8.688-59.042,24.458c-2,2-3.125,4.708-3.125,7.542
			s1.125,5.542,3.125,7.542c1.178,1.176,2.572,2.029,3.805,3.125H74.667c-3.654,0-7.219,0.376-10.667,1.079V106.667z M399.354,224
			c-10.208,6.938-22.25,10.667-34.854,10.667h-25c-12.604,0-24.646-3.729-34.854-10.667c10.208-6.938,22.25-10.667,34.854-10.667h25
			C377.104,213.333,389.146,217.063,399.354,224z M207.354,224c-10.208,6.938-22.25,10.667-34.854,10.667h-25
			c-12.604,0-24.646-3.729-34.854-10.667c10.208-6.938,22.25-10.667,34.854-10.667h25C185.104,213.333,197.146,217.063,207.354,224z
			 M74.667,256h362.667c13.888,0,25.617,8.944,30.035,21.333H44.632C49.049,264.944,60.779,256,74.667,256z M490.667,426.667H21.333
			v-21.333h469.333V426.667z M42.667,384v-42.667H64V384H42.667z M85.333,384v-42.667h128V384H85.333z M234.667,384v-42.667H256V384
			H234.667z M277.333,384v-42.667h149.333V384H277.333z M448,384v-42.667h21.333V384H448z M21.333,320v-21.333h469.333V320H21.333z"
			/>
	</g>
</g>
<g>
</g>
<g>
</g>
<g>
</g>
<g>
</g>
<g>
</g>
<g>
</g>
<g>
</g>
<g>
</g>
<g>
</g>
<g>
</g>
<g>
</g>
<g>
</g>
<g>
</g>
<g>
</g>
<g>
</g>
</svg>
