<svg xmlns="http://www.w3.org/2000/svg" xmlns:xlink="http://www.w3.org/1999/xlink" version="1.1" x="0px" y="0px" viewBox="-346 256 100 125" enable-background="new -346 256 100 100" xml:space="preserve">
    <g>
        <path fill="#00b9d1" d="M-282.471,275.444c-5.346,0-9.696-4.35-9.696-9.699s4.351-9.699,9.696-9.699s9.696,4.35,9.696,9.699   S-277.125,275.444-282.471,275.444L-282.471,275.444z M-282.471,259.803c-3.278,0-5.944,2.664-5.944,5.942s2.666,5.941,5.944,5.941   c3.277,0,5.944-2.664,5.944-5.941S-279.193,259.803-282.471,259.803L-282.471,259.803z" />
        <path fill="#00b9d1" d="M-276.215,289.362c-3.534,0-6.412-2.878-6.412-6.412c0-3.535,2.878-6.412,6.412-6.412c3.535,0,6.413,2.877,6.413,6.412   C-269.802,286.484-272.68,289.362-276.215,289.362L-276.215,289.362z M-276.215,279.978c-1.637,0-2.972,1.332-2.972,2.973   c0,1.64,1.335,2.972,2.972,2.972c1.638,0,2.973-1.332,2.973-2.972C-273.242,281.31-274.577,279.978-276.215,279.978   L-276.215,279.978z" />
        <path fill="#00b9d1" d="M-260.965,277.436c-4.075,0-7.39-3.314-7.39-7.39s3.314-7.39,7.39-7.39s7.39,3.314,7.39,7.39   S-256.89,277.436-260.965,277.436L-260.965,277.436z M-260.965,266.096c-2.178,0-3.949,1.772-3.949,3.95s1.771,3.95,3.949,3.95   c2.179,0,3.95-1.771,3.95-3.95S-258.786,266.096-260.965,266.096L-260.965,266.096z" />
        <path fill="#00b9d1" d="M-263.051,294.791c-2.862,0-5.193-2.331-5.193-5.193c0-2.863,2.331-5.193,5.193-5.193s5.193,2.331,5.193,5.193   C-257.857,292.46-260.188,294.791-263.051,294.791L-263.051,294.791z M-263.051,287.532c-1.14,0-2.065,0.926-2.065,2.065   c0,1.139,0.926,2.065,2.065,2.065s2.064-0.926,2.064-2.065C-260.986,288.458-261.911,287.532-263.051,287.532L-263.051,287.532z" />
        <rect fill="#00b9d1" x="-319.254" y="264.74" width="20.51" height="12.641" />
        <path fill="#00b9d1" d="M-272.173,310.41c-4.28-12.513-17.904-20.62-22.139-22.887v-6.33h-28.746l-0.596,1.244   c-0.382,0.791-9.33,19.569-9.701,34.461c-0.371,14.773,6.018,36.609,6.29,37.532l0.462,1.57h49.199l0.494-1.509   C-276.511,353.288-267.245,324.805-272.173,310.41z M-281.481,324.404c-0.144,1.717-1.734,3.021-3.619,3.021   c-0.089,0-0.181,0-0.27-0.006c-2.001-0.135-3.504-1.705-3.357-3.501c0.01-0.067-0.998-4.105-3.402-8.7   c-2.701-5.172-5.475-7.479-5.526-7.509c-1.708-0.935-2.258-2.945-1.219-4.485c1.029-1.54,3.25-2.041,4.967-1.118   c0.287,0.159,7.069,2.786,10.741,9.806C-279.938,318.087-281.453,324.065-281.481,324.404z" />
    </g>
</svg>