<svg xmlns="http://www.w3.org/2000/svg" xmlns:xlink="http://www.w3.org/1999/xlink" version="1.1" x="0px" y="0px" viewBox="0 0 512 640" style="enable-background:new 0 0 512 512;" xml:space="preserve">
    <g>
        <rect fill="#00b9d1" x="245.3" width="21.3" height="42.7" />
        <rect fill="#00b9d1" x="138.7" y="28.6" transform="matrix(0.866 -0.5 0.5 0.866 -4.9507 81.3616)" width="21.3" height="42.7" />
        <rect fill="#00b9d1" x="60.6" y="106.7" transform="matrix(0.5 -0.866 0.866 0.5 -75.2157 125.6999)" width="21.3" height="42.7" />
        <rect fill="#00b9d1" x="21.3" y="224" width="42.7" height="21.3" />
        <rect fill="#00b9d1" x="49.9" y="330.6" transform="matrix(0.8661 -0.4999 0.4999 0.8661 -161.08 81.3291)" width="42.7" height="21.3" />
        <rect fill="#00b9d1" x="430.1" y="320" transform="matrix(0.5 -0.866 0.866 0.5 -75.2206 552.3314)" width="21.3" height="42.7" />
        <rect fill="#00b9d1" x="448" y="224" width="42.7" height="21.3" />
        <rect fill="#00b9d1" x="419.4" y="117.3" transform="matrix(0.8661 -0.4999 0.4999 0.8661 -4.9596 237.4693)" width="42.7" height="21.3" />
        <rect fill="#00b9d1" x="341.3" y="39.3" transform="matrix(0.4999 -0.8661 0.8661 0.4999 138.1245 339.0515)" width="42.7" height="21.3" />
        <path fill="#00b9d1" d="M168.2,448h175.6c0.9-7.1,2-14.2,3.3-21.3H165.1C166.4,433.7,167.4,440.8,168.2,448z" />
        <path fill="#00b9d1" d="M170.7,490v22h170.7v-26.5c0-5.4,0.3-10.8,0.6-16.2H170C170.4,476.2,170.7,483.1,170.7,490z" />
        <path fill="#00b9d1" d="M362.7,104.8C328.3,73.9,283.9,59.9,237.8,65c-73,8.1-132.2,66.9-140.6,139.8c-4.4,37.3,3.8,73.7,23.9,105   c18.2,28.6,31.4,60.9,39.7,95.5h191.1c8.7-33.7,22.6-67.3,42.1-100.2c14.4-24.5,22.1-52.6,22.1-81.1   C416,178.6,396.6,135.1,362.7,104.8z" />
    </g>
</svg>