<?xml version="1.0" standalone="no"?>
<!DOCTYPE svg PUBLIC "-//W3C//DTD SVG 20010904//EN"
 "http://www.w3.org/TR/2001/REC-SVG-20010904/DTD/svg10.dtd">
<svg version="1.0" xmlns="http://www.w3.org/2000/svg"
 width="421.000000pt" height="428.000000pt" viewBox="0 0 421.000000 428.000000"
 preserveAspectRatio="xMidYMid meet">
<metadata>
Created by potrace 1.15, written by Peter Selinger 2001-2017
</metadata>
<g transform="translate(0.000000,428.000000) scale(0.100000,-0.100000)"
fill="#2ebd7f" stroke="none">
<path d="M3210 4262 c-91 -30 -141 -61 -206 -126 -98 -98 -144 -210 -144 -351
0 -145 52 -268 156 -364 75 -71 144 -106 249 -128 239 -48 481 90 567 325 31
85 31 254 -1 335 -53 135 -163 249 -288 298 -81 31 -254 37 -333 11z m263
-224 c94 -40 167 -154 167 -259 0 -59 -36 -143 -81 -189 -130 -134 -343 -108
-444 55 -27 44 -30 56 -30 134 0 98 16 142 75 201 86 86 198 106 313 58z"/>
<path d="M710 4252 c-91 -30 -141 -61 -206 -126 -98 -98 -144 -210 -144 -351
0 -145 52 -268 156 -364 75 -71 144 -106 249 -128 239 -48 481 90 567 325 31
85 31 254 -1 335 -53 135 -163 249 -288 298 -81 31 -254 37 -333 11z m263
-224 c94 -40 167 -154 167 -259 0 -59 -36 -143 -81 -189 -130 -134 -343 -108
-444 55 -27 44 -30 56 -30 134 0 98 16 142 75 201 86 86 198 106 313 58z"/>
<path d="M1960 4082 c-91 -30 -141 -61 -206 -126 -98 -98 -144 -210 -144 -351
0 -145 52 -268 156 -364 75 -71 144 -106 249 -128 239 -48 481 90 567 325 31
85 31 254 -1 335 -53 135 -163 249 -288 298 -81 31 -254 37 -333 11z m237
-207 c110 -33 196 -150 196 -268 0 -215 -220 -352 -411 -256 -176 87 -214 303
-80 445 81 86 181 113 295 79z"/>
<path d="M2863 3175 c-82 -18 -153 -57 -217 -119 l-51 -50 -125 3 c-155 3
-158 1 -272 -143 -46 -58 -85 -105 -88 -105 -3 -1 -38 41 -79 93 -40 51 -86
107 -102 122 l-30 29 -142 1 -142 0 -47 45 c-95 91 -205 129 -378 129 -121 0
-134 -8 -242 -144 -46 -58 -85 -105 -88 -105 -3 -1 -38 41 -79 93 -117 152
-116 150 -227 154 -52 2 -125 -1 -162 -7 -149 -25 -274 -120 -338 -255 -57
-120 -57 -162 10 -661 54 -406 57 -422 91 -491 32 -66 91 -134 140 -161 16
-10 29 -85 101 -614 46 -332 88 -621 94 -642 14 -47 71 -111 124 -140 38 -21
55 -22 246 -22 191 0 208 2 245 21 54 29 94 71 116 119 12 27 44 238 100 651
l83 612 26 -42 c26 -40 81 -94 116 -114 15 -8 31 -105 100 -613 46 -332 88
-621 94 -642 14 -47 71 -111 124 -140 38 -21 55 -22 246 -22 191 0 208 2 245
21 54 29 94 71 116 119 12 27 44 239 100 653 l83 612 50 38 c27 20 64 58 81
83 l31 45 83 -605 c46 -333 90 -622 98 -641 18 -45 67 -96 118 -123 37 -21 54
-22 245 -22 191 0 208 2 245 21 54 29 94 71 116 119 12 27 45 239 101 654 l82
613 43 29 c55 38 107 107 133 175 29 79 133 864 127 959 -9 137 -84 268 -197
343 -86 58 -143 73 -290 79 -155 5 -157 4 -272 -141 -46 -58 -85 -105 -88
-105 -3 -1 -38 41 -79 93 -120 155 -113 151 -244 153 -67 1 -137 -3 -174 -12z
m283 -327 c116 -143 148 -168 214 -168 67 0 98 25 215 169 l99 123 71 -4 c83
-6 138 -31 185 -84 42 -49 60 -92 60 -149 0 -57 -96 -787 -110 -836 -11 -41
-62 -95 -110 -118 -67 -32 -63 -16 -155 -696 -47 -346 -90 -640 -95 -652 -9
-22 -13 -23 -160 -23 -147 0 -151 1 -160 22 -5 13 -47 306 -94 653 -93 682
-89 663 -157 697 -19 9 -44 27 -56 40 l-21 23 44 330 c61 450 56 512 -58 663
l-50 66 27 22 c38 30 79 42 151 43 l61 1 99 -122z m-2500 -10 c116 -143 148
-168 214 -168 66 0 98 25 214 168 l99 122 56 0 c59 -1 113 -16 156 -44 l25
-16 -43 -53 c-23 -28 -55 -81 -71 -116 -45 -102 -45 -172 3 -536 23 -170 44
-322 47 -337 6 -30 -21 -60 -78 -88 -64 -31 -61 -18 -153 -695 -47 -346 -90
-640 -95 -652 -9 -22 -13 -23 -160 -23 -147 0 -151 1 -160 22 -5 13 -47 306
-94 653 -92 676 -89 664 -152 694 -43 20 -90 68 -107 109 -17 40 -117 768
-117 848 1 66 28 121 83 170 55 49 91 62 173 63 l61 1 99 -122z m1259 -172
c54 -68 112 -132 129 -142 40 -23 112 -23 152 0 17 10 75 74 129 142 l98 124
71 0 c123 0 214 -61 251 -169 15 -44 14 -61 -36 -451 -28 -223 -56 -422 -61
-443 -11 -48 -65 -108 -117 -131 -24 -11 -45 -30 -55 -50 -9 -19 -48 -271
-101 -665 -47 -349 -88 -638 -91 -643 -7 -10 -321 -11 -328 0 -3 5 -44 294
-91 643 -47 349 -91 647 -97 662 -7 18 -28 37 -58 52 -66 34 -106 83 -119 147
-21 103 -105 754 -105 813 0 73 26 129 83 176 52 44 92 57 177 58 l71 1 98
-124z"/>
</g>
</svg>
