<svg xmlns="http://www.w3.org/2000/svg" xmlns:xlink="http://www.w3.org/1999/xlink" version="1.1" x="0px" y="0px" viewBox="0 0 90 112.5" style="enable-background:new 0 0 90 90;" xml:space="preserve">
    <g>
        <path fill="#00b9d1" d="M70.8,24.2h-8.4c0.8,1.7,1.3,3.6,1.3,5.7v18.8c0,4.2-2,8.1-5.2,10.5v17.1c0.3,3,2.9,5.3,6,5.3h3.3c3.3,0,6-2.7,6-6V55.1   c2.7-1.1,4.6-3.8,4.6-6.9V31.7C78.3,27.6,75,24.2,70.8,24.2z" />
        <circle fill="#00b9d1" cx="66" cy="15" r="7" />
        <path fill="#00b9d1" d="M26.3,48.6V29.9c0-2,0.5-3.9,1.3-5.7h-8.5c-4.1,0-7.5,3.4-7.5,7.5v16.5c0,3.1,1.9,5.7,4.6,6.9v20.5c0,3.3,2.7,6,6,6h3.3   c3.3,0,6-2.7,6-6V59.1C28.3,56.6,26.3,52.8,26.3,48.6z" />
        <circle fill="#00b9d1" cx="23.7" cy="15" r="7" />
        <path fill="#00b9d1" d="M58.9,29.9c0-4.7-3.8-8.5-8.5-8.5H39.6c-4.7,0-8.5,3.8-8.5,8.5v18.8c0,3.5,2.1,6.6,5.2,7.9v23.3c0,3.8,3.1,6.9,6.9,6.9h3.7   c3.8,0,6.9-3.1,6.9-6.9V56.5c3-1.3,5.2-4.3,5.2-7.9V29.9z" />
        <circle fill="#00b9d1" cx="44.9" cy="10.9" r="7.9" />
    </g>
</svg>