<svg xmlns="http://www.w3.org/2000/svg" xmlns:xlink="http://www.w3.org/1999/xlink" version="1.1" x="0px" y="0px" viewBox="0 0 100 125" enable-background="new 0 0 100 100" xml:space="preserve">
    <g>
        <g>
            <path fill="#00b9d1" d="M18,80h11v-4V54H18h-4v24v2v4h4V80z M22,63h4v4h-4V63z" />
            <path fill="#00b9d1" d="M86,84v-4v-2V54h-4H71v22v4h11v4H86z M74,63h4v4h-4V63z" />
            <rect x="48" y="80" fill="#00b9d1" width="4" height="4" />
            <polygon fill="#00b9d1" points="48,28 48,24 48,20 14,20 14,28 18,28   " />
            <polygon fill="#00b9d1" points="48,50 48,43 18,43 14,43 14,50 18,50   " />
            <polygon fill="#00b9d1" points="48,39 48,32 18,32 14,32 14,39 18,39   " />
            <polygon fill="#00b9d1" points="86,20 52,20 52,24 52,28 82,28 86,28   " />
            <path fill="#00b9d1" d="M67,76V54H52v22v2v2h15V76z M60,63h4v4h-4V63z" />
            <path fill="#00b9d1" d="M48,76V54H33v22v4h15v-2V76z M36,63h4v4h-4V63z" />
            <polygon fill="#00b9d1" points="86,43 82,43 52,43 52,50 82,50 86,50   " />
            <polygon fill="#00b9d1" points="86,32 82,32 52,32 52,39 82,39 86,39   " />
        </g>
    </g>
</svg>