<svg xmlns="http://www.w3.org/2000/svg" xmlns:xlink="http://www.w3.org/1999/xlink" version="1.1" x="0px" y="0px" viewBox="0 0 100 125" enable-background="new 0 0 100 100" xml:space="preserve">
    <g>
        <g>
            <path fill="#00b9d1" d="M78,58h2v-8v-3c0-3.30859-2.69141-6-6-6H52v2v2v13h24H78z" />
            <polygon fill="#00b9d1" points="80,62 78,62 76,62 50,62 24,62 22,62 20,62 20,65 80,65   " />
            <path fill="#00b9d1" d="M15,74h2v3h4v-3h58v3h4v-3h2c0.54297,0,1.0625-0.2207,1.43945-0.61182    c4.88965-5.06982,5.50488-17.87012,5.55957-19.31299c0.01953-0.54346-0.18164-1.07129-0.55859-1.46289    C91.06348,52.22119,90.54297,52,90,52h-6v15c0,1.10449-0.89551,2-2,2H18c-1.10449,0-2-0.89551-2-2V52h-6    c-0.54346,0-1.06348,0.22119-1.44043,0.6123c-0.37695,0.3916-0.57861,0.91943-0.55811,1.46289    c0.0542,1.44287,0.66992,14.24316,5.55908,19.31299C13.9375,73.7793,14.45703,74,15,74z" />
            <path fill="#00b9d1" d="M24,58h24V45v-2v-2H26c-3.30859,0-6,2.69141-6,6v4v7h2H24z" />
        </g>
    </g>
</svg>