<svg xmlns="http://www.w3.org/2000/svg" xmlns:xlink="http://www.w3.org/1999/xlink" version="1.1" x="0px" y="0px" viewBox="0 0 30 37.5" xml:space="preserve">
    <g transform="translate(-210 -140)">
        <g xmlns="http://www.w3.org/2000/svg" xmlns:xlink="http://www.w3.org/1999/xlink">
            <path fill="#00b9d1" d="M215,148.111V168h20v-19.889H215z M225,164c-3.314,0-6-2.686-6-6s2.686-6,6-6c3.313,0,6,2.686,6,6S228.313,164,225,164z" />
            <path fill="#00b9d1" d="M215,141v6h20v-6H215z M218,145c-0.553,0-1-0.447-1-1s0.447-1,1-1c0.553,0,1,0.447,1,1S218.553,145,218,145z M221,145    c-0.553,0-1-0.447-1-1s0.447-1,1-1c0.553,0,1,0.447,1,1S221.553,145,221,145z" />
            <circle fill="#00b9d1" cx="225" cy="158" r="5" />
        </g>
    </g>
</svg>