<svg xmlns="http://www.w3.org/2000/svg" xmlns:xlink="http://www.w3.org/1999/xlink" version="1.1" x="0px" y="0px" viewBox="0 0 100 125" style="enable-background:new 0 0 100 100;" xml:space="preserve">
    <circle fill="#00b9d1" cx="50.2" cy="77" r="11" />
    <path fill="#00b9d1" d="M65.1,65l8.7-9.3c0,0-8.6-8.9-23.6-8.9s-23.8,9-23.8,9l8.6,9.2c0,0,6.7-5.7,15.1-5.7S65.1,65,65.1,65z" />
    <path fill="#00b9d1" d="M77.1,52.2l8.7-9.3c0,0-13.8-13.5-35.7-13.5S14.3,42.9,14.3,42.9l8.7,9.3c0,0,12.3-10.3,27.1-10.3  S77.1,52.2,77.1,52.2z" />
    <path fill="#00b9d1" d="M89.2,39.3l8.9-9.5c0,0-18.5-18-47.9-18s-48.1,18-48.1,18l8.9,9.5c0,0,15.6-14.9,39.2-14.9  S89.2,39.3,89.2,39.3z" />
</svg>